<?xml version="1.0" encoding="UTF-8"?><svg id="Layer_2" xmlns="http://www.w3.org/2000/svg" viewBox="0 0 322.05 389.25"><g id="LOGOS"><path d="m280.44,80.45c4.06-10.7,12.97-18.51,26.5-23.24-15.05-29.37-32.98-43.06-56.37-43.06s-42.11,18.89-42.11,42.11c0,24.62-1.47,64.43-10.07,85.75,29.52.09,54.1,9.24,71.45,26.45,16.67,16.54,25.85,40.22,25.85,66.7,0,5.13-.39,10.17-1.11,15.11,23.18-45.22,12.37-89.53-2.51-114.36-13.09-21.84-17.11-41.01-11.63-55.46h0Z" fill="#50f3ff" stroke-width="0"/><path d="m259.87,178.51c-14.76-14.64-36.23-22.37-62.14-22.37h-1.05c-42.8,0-88.43,25.11-125.25,68.9-33.41,39.73-54.28,89.18-56.98,134.22,19-6.93,38.97-18.27,57.17-32.53,1.25-.98,2.78-1.51,4.36-1.51h115.47c49.67,0,90.07-40.41,90.07-90.07,0-23-7.49-42.59-21.66-56.65h.01Z" fill="#fff" stroke-width="0"/><circle cx="251.19" cy="52.18" r="24.46" fill="#fff" stroke-width="0"/><path d="m258.72,53.15c-4.57,0-8.27-3.7-8.27-8.27,0-3.09,1.72-5.76,4.23-7.17-1.12-.27-2.28-.45-3.49-.45-8.24,0-14.92,6.68-14.92,14.92s6.68,14.92,14.92,14.92,14.92-6.68,14.92-14.92c0-1.06-.12-2.09-.33-3.08-1.44,2.42-4.06,4.05-7.08,4.05h.02Z" fill="#006cbf" stroke-width="0"/><path d="m223.6,218h-58c-3.91,0-7.08-3.17-7.08-7.08s3.17-7.08,7.08-7.08h58c3.91,0,7.08,3.17,7.08,7.08s-3.17,7.08-7.08,7.08Z" fill="#05c2db" stroke-width="0"/><path d="m204.47,253.59h-76.39c-3.91,0-7.08-3.17-7.08-7.08s3.17-7.08,7.08-7.08h76.39c3.91,0,7.08,3.17,7.08,7.08s-3.17,7.08-7.08,7.08Z" fill="#05c2db" stroke-width="0"/><path d="m173.33,289.19h-96.21c-3.91,0-7.08-3.17-7.08-7.08s3.17-7.08,7.08-7.08h96.21c3.91,0,7.08,3.17,7.08,7.08s-3.17,7.08-7.08,7.08Z" fill="#05c2db" stroke-width="0"/><path d="m304.21,128.63c-10.63-17.73-14.37-33.06-10.53-43.16,2.69-7.08,9.09-12.13,19.57-15.44,3.29-1.04,5.97-3.51,7.35-6.78,1.49-3.53,1.35-7.69-.37-11.13C302.62,17.05,279.84,0,250.57,0c-31.03,0-56.27,25.24-56.27,56.27,0,43.63-5.11,79.21-12.44,86.54-.05.05-.07.1-.12.14-42.37,5-85.79,30.94-121.15,72.99C22.66,261.06,0,318.33,0,369.14c0,2.23,1.05,4.33,2.83,5.66,1.24.93,2.73,1.42,4.25,1.42.66,0,1.33-.09,1.98-.28,22.71-6.63,47.25-19.57,69.35-36.54h89.76l-9.47,9.95c-2.78,2.94-4.19,6.74-3.98,10.69.22,3.98,2.06,7.64,5.18,10.29l7.26,6.18h-12.55c-3.52,0-6.37,2.85-6.37,6.37s2.85,6.37,6.37,6.37h72.81c3.52,0,6.37-2.85,6.37-6.37s-2.85-6.37-6.37-6.37h-40.6l-18.67-15.88c-.44-.38-.69-.82-.71-1.28-.02-.44.15-.87.5-1.24l17.81-18.72h5.71c29.81,0,56.72-12.6,75.74-32.74,30.2-26.59,48.57-58.01,53.49-92.04,6.31-43.73-11.02-76.86-16.48-85.98h0Zm-228.22,196.6c-1.58,0-3.12.53-4.36,1.51-18.2,14.26-38.17,25.59-57.17,32.53,2.7-45.04,23.57-94.49,56.98-134.22,36.82-43.79,82.45-68.9,125.25-68.9h1.05c25.91,0,47.38,7.72,62.14,22.37,14.17,14.06,21.66,33.65,21.66,56.65,0,49.67-40.41,90.07-90.07,90.07h-115.48Zm218.59-74.97c.72-4.93,1.11-9.97,1.11-15.11,0-26.48-9.18-50.16-25.85-66.7-17.35-17.21-41.93-26.36-71.45-26.45,8.6-21.32,10.07-61.13,10.07-85.75,0-23.22,18.89-42.11,42.11-42.11s41.32,13.69,56.37,43.06c-13.53,4.72-22.43,12.53-26.5,23.24-5.48,14.44-1.46,33.62,11.63,55.46,14.88,24.83,25.69,69.14,2.51,114.36h0Z" fill="#006cbf" stroke-width="0"/><path d="m78.31,325.23h113.15c49.67,0,90.07-40.41,90.07-90.07,0-2.66-.11-5.26-.31-7.82-41.41,108.97-192.95,96.62-202.91,97.89h0Z" fill="#333" isolation="isolate" opacity=".15" stroke-width="0"/><path d="m292.07,135.91c-.97-1.62-1.87-3.21-2.74-4.8,3.35,25.49,2.9,47.74-.31,66.98,4.38,11.3,6.67,23.84,6.67,37.08,0,5.15-.39,10.2-1.12,15.15,23.21-45.23,12.38-89.57-2.5-114.41h0Z" fill="#333" isolation="isolate" opacity=".15" stroke-width="0"/></g></svg>