<?xml version="1.0" encoding="UTF-8"?><svg id="Layer_2" data-name="Layer 2" xmlns="http://www.w3.org/2000/svg" viewBox="0 0 494.53 137.51"><g id="LOGOS"><g><g><path d="m99.07,28.42c1.43-3.78,4.58-6.54,9.36-8.21-5.32-10.38-11.65-15.21-19.91-15.21s-14.88,6.67-14.88,14.88c0,8.7-.52,22.76-3.56,30.29,10.43.03,19.11,3.26,25.24,9.34,5.89,5.84,9.13,14.21,9.13,23.56,0,1.81-.14,3.59-.39,5.34,8.19-15.97,4.37-31.63-.89-40.4-4.62-7.71-6.04-14.49-4.11-19.59Z" fill="#50f3ff" stroke-width="0"/><path d="m91.81,63.06c-5.21-5.17-12.8-7.9-21.95-7.9-.12,0-.25,0-.37,0-15.12,0-31.24,8.87-44.25,24.34-11.8,14.03-19.17,31.51-20.13,47.42,6.71-2.45,13.77-6.45,20.2-11.49.44-.34.98-.53,1.54-.53h40.79c17.55,0,31.82-14.27,31.82-31.82,0-8.13-2.65-15.05-7.65-20.01Z" fill="#fff" stroke-width="0"/><g><circle cx="88.74" cy="18.43" r="8.64" fill="#fff" stroke-width="0"/><path d="m91.4,18.78c-1.61,0-2.92-1.31-2.92-2.92,0-1.09.61-2.03,1.5-2.53-.4-.1-.81-.16-1.23-.16-2.91,0-5.27,2.36-5.27,5.27s2.36,5.27,5.27,5.27,5.27-2.36,5.27-5.27c0-.37-.04-.74-.12-1.09-.51.85-1.43,1.43-2.5,1.43Z" fill="#006cbf" stroke-width="0"/></g><path d="m78.99,77.01h-20.49c-1.38,0-2.5-1.12-2.5-2.5s1.12-2.5,2.5-2.5h20.49c1.38,0,2.5,1.12,2.5,2.5s-1.12,2.5-2.5,2.5Z" fill="#05c2db" stroke-width="0"/><path d="m72.23,89.59h-26.99c-1.38,0-2.5-1.12-2.5-2.5s1.12-2.5,2.5-2.5h26.99c1.38,0,2.5,1.12,2.5,2.5s-1.12,2.5-2.5,2.5Z" fill="#05c2db" stroke-width="0"/><path d="m61.23,102.16H27.25c-1.38,0-2.5-1.12-2.5-2.5s1.12-2.5,2.5-2.5h33.99c1.38,0,2.5,1.12,2.5,2.5s-1.12,2.5-2.5,2.5Z" fill="#05c2db" stroke-width="0"/><path d="m107.47,45.44c-3.75-6.26-5.08-11.68-3.72-15.25.95-2.5,3.21-4.29,6.92-5.46,1.16-.37,2.11-1.24,2.6-2.39.53-1.25.48-2.72-.13-3.93C106.91,6.02,98.86,0,88.52,0c-10.96,0-19.88,8.92-19.88,19.88,0,15.41-1.81,27.98-4.39,30.57-.02.02-.03.03-.04.05-14.97,1.77-30.31,10.93-42.8,25.79C8,92.23,0,112.46,0,130.41c0,.79.37,1.53,1,2,.44.33.97.5,1.5.5.23,0,.47-.03.7-.1,8.02-2.34,16.69-6.92,24.5-12.91h31.71l-3.35,3.52c-.98,1.04-1.48,2.38-1.4,3.78.08,1.41.73,2.7,1.83,3.64l2.57,2.18h-4.43c-1.24,0-2.25,1.01-2.25,2.25s1.01,2.25,2.25,2.25h25.72c1.24,0,2.25-1.01,2.25-2.25s-1.01-2.25-2.25-2.25h-14.34l-6.6-5.61c-.16-.13-.24-.29-.25-.45,0-.16.05-.31.18-.44l6.29-6.61h2.02c10.53,0,20.04-4.45,26.76-11.57,10.67-9.39,17.16-20.49,18.9-32.52,2.23-15.45-3.89-27.15-5.82-30.37ZM26.85,114.9c-.56,0-1.1.19-1.54.53-6.43,5.04-13.49,9.04-20.2,11.49.96-15.91,8.33-33.38,20.13-47.42,13.01-15.47,29.13-24.34,44.25-24.34.12,0,.25,0,.37,0,9.15,0,16.74,2.73,21.95,7.9,5.01,4.97,7.65,11.89,7.65,20.01,0,17.55-14.27,31.82-31.82,31.82H26.85Zm77.22-26.48c.25-1.74.39-3.52.39-5.34,0-9.35-3.24-17.72-9.13-23.56-6.13-6.08-14.81-9.31-25.24-9.34,3.04-7.53,3.56-21.6,3.56-30.29,0-8.2,6.67-14.88,14.88-14.88s14.6,4.84,19.91,15.21c-4.78,1.67-7.93,4.43-9.36,8.21-1.94,5.1-.52,11.88,4.11,19.59,5.26,8.77,9.07,24.43.89,40.4Z" fill="#006cbf" stroke-width="0"/><path d="m27.67,114.9h39.97c17.55,0,31.82-14.27,31.82-31.82,0-.94-.04-1.86-.11-2.76-14.63,38.5-68.17,34.13-71.68,34.58Z" fill="#333" opacity=".15" stroke-width="0"/><path d="m103.18,48.01c-.34-.57-.66-1.14-.97-1.7,1.18,9.01,1.03,16.87-.11,23.66,1.55,3.99,2.36,8.42,2.36,13.1,0,1.82-.14,3.6-.39,5.35,8.2-15.98,4.37-31.64-.88-40.42Z" fill="#333" opacity=".15" stroke-width="0"/></g><g><path d="m212.67,56.26c-.98-1.14-2.31-1.71-3.96-1.71h-25.07c-.34-.07-.65-.07-1.06,0h-24.07c-1.55,0-2.97.54-4.23,1.62-1.25,1.1-2,2.45-2.21,4-.23,1.65.17,3.06,1.18,4.18,1.01,1.17,2.34,1.76,3.95,1.76h18.61l-7.81,56.66c-.23,1.64.17,3.06,1.19,4.25,1.01,1.13,2.35,1.7,3.99,1.7,1.55,0,2.97-.54,4.23-1.62,1.25-1.1,2-2.47,2.22-4.05l7.85-56.93h19.92c1.6,0,3.03-.56,4.23-1.66,1.26-1.07,2-2.42,2.22-4.01.22-1.6-.18-3.01-1.18-4.18Z" fill="#006cbf" stroke-width="0"/><path d="m276.58,70.62c-1.01-1.13-2.34-1.7-3.94-1.7s-3.02.54-4.23,1.62c-1.25,1.1-2,2.47-2.22,4.05l-3.32,24.09c-.69,5.03-3.12,9.4-7.21,13-4.05,3.56-8.66,5.37-13.71,5.37s-9.01-1.72-12.06-5.27c-3.08-3.58-4.25-7.78-3.55-12.83l3.32-24.09c.23-1.64-.17-3.06-1.17-4.23-.98-1.14-2.31-1.71-3.95-1.71-1.55,0-2.97.54-4.23,1.62-1.25,1.1-2,2.47-2.22,4.05l-3.32,24.09c-1.13,8.22.84,15.35,5.86,21.18,5.05,5.87,11.78,8.85,20,8.85s15.68-2.95,22.24-8.75c6.56-5.77,10.45-12.84,11.58-21.01l3.32-24.09c.23-1.64-.17-3.06-1.19-4.25Z" fill="#006cbf" stroke-width="0"/><path d="m331.01,72.89c-3.78-2.63-8.34-3.97-13.56-3.97-7.29,0-13.95,2.6-19.78,7.74-5.83,5.13-9.3,11.44-10.31,18.73l-3.77,27.38c-.22,1.61.18,3.01,1.18,4.18,1.01,1.17,2.33,1.77,3.95,1.77s3.04-.56,4.3-1.68c1.21-1.1,1.94-2.45,2.15-3.99l3.78-27.38c.57-4.15,2.56-7.74,5.93-10.67,3.33-2.96,7.11-4.46,11.25-4.46,2.87,0,5.37.72,7.42,2.13,2.15,1.48,5.15,1.18,7.32-.72,1.53-1.34,2.37-3.28,2.27-5.17-.09-1.62-.85-3-2.12-3.89Z" fill="#006cbf" stroke-width="0"/><path d="m422.17,76.2c-4.16-4.83-9.72-7.28-16.53-7.28s-12.93,2.42-18.34,7.18c-.58.51-1.15,1.05-1.7,1.59-.37-.51-.76-1.01-1.17-1.5-4.16-4.83-9.72-7.28-16.53-7.28s-12.92,2.42-18.34,7.18c-5.41,4.76-8.63,10.61-9.56,17.37l-4.04,29.3c-.22,1.61.18,3.01,1.18,4.18,1.01,1.17,2.33,1.77,3.95,1.77s3.03-.56,4.24-1.67c1.25-1.1,2-2.45,2.21-4l4.04-29.3c.5-3.62,2.24-6.75,5.18-9.31,2.91-2.59,6.21-3.9,9.81-3.9s6.45,1.24,8.62,3.8c2.18,2.53,2.99,5.51,2.49,9.13l-4.04,29.3c-.22,1.61.18,3.01,1.18,4.18,1.01,1.17,2.33,1.77,3.95,1.77s3.04-.56,4.29-1.67c1.25-1.1,2-2.45,2.21-4l4.04-29.3c.5-3.62,2.22-6.75,5.13-9.31,2.91-2.59,6.23-3.9,9.86-3.9s6.4,1.24,8.58,3.81c2.21,2.53,3.04,5.51,2.54,9.13l-4.04,29.3c-.22,1.61.18,3.01,1.17,4.16.97,1.18,2.31,1.78,3.96,1.78,1.56,0,2.99-.56,4.24-1.67,1.25-1.1,2-2.45,2.21-4l4.04-29.3c.94-6.81-.69-12.71-4.85-17.54Z" fill="#006cbf" stroke-width="0"/><path d="m493.21,77.75c-2.61-2.87-5.93-5.09-9.87-6.59-3.81-1.45-8.09-2.21-12.74-2.24-6.53,0-12.41,1.3-17.49,3.85-6.62,3.38-10.42,8.2-11.3,14.32-1,7.25,1.71,12.32,8.06,15.08,3.51,1.5,8.94,2.29,16.14,2.36,6.13.03,10.18.43,12.04,1.2,1.06.42,2.43,1.35,1.99,4.55-.23,1.68-1.4,3.09-3.59,4.33-3.27,1.89-7.43,2.87-12.36,2.9-3.34.03-6.43-.49-9.21-1.56-2.69-1.02-4.98-2.52-6.81-4.46-.99-1.05-2.3-1.55-3.9-1.53-1.53.08-2.89.69-4.01,1.78-1.19,1.08-1.86,2.41-1.99,3.92-.18,1.59.26,2.93,1.29,3.99,2.79,2.96,6.28,5.26,10.38,6.83,3.88,1.49,8.17,2.24,12.75,2.24.1,0,.2,0,.3,0,7.06-.07,13.22-1.6,18.32-4.53,5.89-3.35,9.27-7.94,10.06-13.64,1.05-7.64-1.67-12.8-8.1-15.34-3.05-1.2-8.23-1.82-15.82-1.89-5.72-.03-9.76-.55-12.01-1.53-1.88-.83-2.62-2.24-2.35-4.41.25-1.8,1.7-3.39,4.3-4.71,3.28-1.64,7.31-2.48,12.03-2.48l.65-.04c3.04.09,5.84.61,8.33,1.54,2.5.95,4.58,2.33,6.19,4.08.99,1.1,2.3,1.62,3.88,1.6,1.49-.04,2.84-.6,4.04-1.69,1.17-1.1,1.87-2.41,2.07-3.88v-.03c.18-1.58-.25-2.94-1.27-4.02Z" fill="#006cbf" stroke-width="0"/></g></g></g></svg>